PathFileType	4	(X/Y/Z)	D:\TRACE\v60_Jaco2_6-2-23\BothDRS_Motion3_1-v60.trc
DataRate	CameraRate	NumFrames	NumMarkers	Units	OrigDataRate	OrigDataStartFrame	OrigNumFrames
100.00	100.00	      17	9	mm	100.00	2626	      7000
Frame#	Time	front left toe			Front right toe			aft left toe			aft right toe			Arm			FL body			FR body			AL Body			AR Body			
		X1	Y1	Z1	X2	Y2	Z2	X3	Y3	Z3	X4	Y4	Z4	X5	Y5	Z5	X6	Y6	Z6	X7	Y7	Z7	X8	Y8	Z8	X9	Y9	Z9	

2626	26.250	-116.88667	54.35306	-292.30954	261.37750	53.13908	-267.92038	-111.89011	-20.53895	360.43576	255.65025	-18.85810	329.53824	106.37778	1181.20386	-602.40936	-11.33694	563.27289	-433.54495	147.57013	561.31671	-436.18689	9.81952	507.55121	507.44226	161.73981	497.05597	505.64185	
2627	26.260	-113.80289	58.91387	-290.35800	261.50092	52.82309	-268.30093	-111.40478	-21.25272	360.29236	253.42186	-16.03164	332.40079	105.26318	1182.80408	-601.21277	-11.84178	564.19952	-432.61514	146.33221	562.10455	-434.99854	10.22206	507.68768	508.90762	162.12007	497.01590	506.31259	
2628	26.270	-109.51604	62.40015	-285.96906	261.11295	52.71172	-268.63046	-111.93927	-21.05001	360.62863	250.41342	-12.40137	336.07874	104.49456	1183.75537	-599.77338	-11.95294	565.03693	-431.50250	145.82268	563.36249	-433.99258	10.89103	506.91022	509.17957	162.65550	496.30609	506.99667	
2629	26.280	-106.83385	71.18744	-283.29953	260.91809	52.53774	-268.90555	-112.02515	-21.14760	360.69644	247.36516	-2.95461	337.74075	103.50311	1184.21545	-597.98584	-12.17063	565.79327	-430.65204	146.40765	563.79364	-433.84720	11.56183	507.43274	511.62115	163.08853	495.94598	507.72586	
2630	26.290	-106.97842	83.14526	-283.43829	261.41675	52.48512	-268.48407	-111.65900	-21.62737	360.54691	245.52287	7.42413	338.20737	103.05828	1184.72180	-596.32300	-12.63806	566.18732	-430.01877	146.44942	563.89832	-432.85474	11.57658	506.81812	512.38928	163.27187	495.19858	508.24326	
2631	26.300	-109.03352	95.33242	-282.93570	261.52548	52.30066	-268.50861	-111.97964	-21.18903	360.79251	246.01546	20.06213	337.59213	102.76241	1185.40723	-594.87512	-12.28970	566.00116	-428.95554	146.34567	564.04541	-432.24478	11.53817	506.14807	513.39856	163.32112	494.61871	509.31363	
2632	26.310	-110.64056	109.11351	-282.74026	261.70078	52.36532	-268.22885	-111.81870	-21.74850	360.78455	249.27496	32.91342	337.78088	103.37885	1185.69043	-593.47546	-12.40028	566.37970	-428.39929	146.43536	564.03113	-431.40280	11.45072	505.27106	513.88391	163.04947	493.60135	510.01517	
2633	26.320	-112.01313	122.30791	-281.26849	261.35739	51.97178	-268.44180	-112.55331	-21.55049	360.86014	253.64281	46.50425	338.60751	103.32221	1185.68176	-591.93744	-12.08190	566.26166	-427.26337	146.37335	564.12213	-430.40405	10.70970	503.97589	514.78241	162.60205	492.51694	510.60306	
2634	26.330	-113.08409	134.75502	-278.98511	261.12640	51.61636	-268.58337	-112.65961	-21.52120	360.86908	255.32768	58.84269	339.76959	104.19863	1185.43848	-590.47992	-12.09225	566.35645	-426.74442	146.26900	564.19525	-429.72546	10.37111	502.83292	515.16541	162.03047	491.57687	511.55899	
2635	26.340	-114.29981	146.78703	-276.26398	261.50854	51.44096	-268.44565	-112.58520	-21.38778	360.95847	257.20984	70.76089	341.75064	105.07623	1185.53772	-589.04053	-12.06270	566.15326	-425.92242	146.60008	564.00781	-428.69064	10.17585	502.18539	516.21240	161.86009	490.65402	512.32178	
2636	26.350	-115.29557	157.84229	-273.63458	261.83029	51.41846	-268.23123	-112.59229	-21.39031	360.96371	256.81726	81.51926	343.90247	106.14344	1185.77100	-587.81891	-12.04794	565.71759	-424.89877	146.46051	563.85516	-428.04117	9.93983	501.69080	516.87531	161.58374	490.00024	513.29944	
2637	26.360	-116.09214	167.60675	-271.30533	262.12573	51.32692	-268.11551	-112.73115	-21.44642	360.86191	256.55032	91.52692	345.78833	106.97873	1185.66577	-586.38910	-12.29476	565.53912	-424.46323	145.95790	563.24207	-426.83533	9.78317	501.07404	517.53375	161.21677	489.53809	513.92743	
2638	26.370	-117.14074	175.47404	-268.70520	262.26709	51.31934	-267.94647	-112.75109	-21.47567	360.91217	256.27972	99.33367	348.48444	107.40210	1185.37219	-585.38611	-11.98804	565.08246	-423.25864	146.10861	562.76404	-425.84415	9.02568	500.71399	518.81482	161.07245	489.33545	515.08929	
2639	26.380	-118.46506	182.23965	-265.98825	262.25403	51.19912	-267.82074	-112.72359	-21.43207	360.98810	256.27933	104.56372	351.10721	107.82948	1184.98889	-584.37146	-11.98370	565.00861	-422.49155	146.23869	562.58075	-424.72025	8.71748	500.51089	519.44598	160.41171	488.73157	515.91394	
2640	26.390	-120.11144	185.75179	-262.79968	262.03003	50.94294	-267.88223	-112.72137	-21.41916	361.06140	256.91791	107.09418	353.88211	107.80035	1184.42297	-583.67957	-11.78827	564.83893	-421.40134	146.84784	562.48578	-423.89554	8.11220	500.28189	520.84515	159.91527	488.24219	517.17206	
2641	26.400	-121.31632	185.50433	-259.24203	262.11594	50.92212	-267.70145	-112.30723	-21.81908	360.91394	257.99149	106.58801	357.29233	108.34805	1183.77417	-583.08478	-11.27563	565.03180	-420.75192	146.70885	562.29950	-422.68182	7.69404	500.05753	521.43121	159.46495	487.92993	518.27136	
2642	26.410	-122.43480	182.19458	-255.31053	262.25076	50.98083	-267.55203	-112.76853	-21.30449	361.02280	257.84296	102.92680	361.17636	108.89236	1183.22852	-582.53821	-11.02607	565.09583	-419.87613	147.40208	562.37000	-422.18884	6.88714	500.24368	522.65833	158.75529	487.79266	519.10944	
